<?xml version="1.0" encoding="UTF-8" standalone="no"?>
<!DOCTYPE svg PUBLIC "-//W3C//DTD SVG 1.1//EN" "http://www.w3.org/Graphics/SVG/1.1/DTD/svg11.dtd">
<svg width="100%" height="100%" viewBox="0 0 448 448" version="1.1" xmlns="http://www.w3.org/2000/svg" xmlns:xlink="http://www.w3.org/1999/xlink" xml:space="preserve" xmlns:serif="http://www.serif.com/" style="fill-rule:evenodd;clip-rule:evenodd;stroke-linecap:round;stroke-linejoin:round;stroke-miterlimit:1.5;">
    <g>
        <g transform="matrix(0.737589,0,0,0.743245,1.71472,-7.2655)">
            <path d="M420.361,192.229C418.531,191.932 416.679,191.795 414.826,191.819L99.305,191.819L106.185,188.619C112.91,185.436 119.028,181.104 124.265,175.819L212.745,87.339C224.398,76.215 226.356,58.32 217.385,44.939C206.944,30.68 186.921,27.584 172.661,38.025C171.509,38.869 170.414,39.789 169.385,40.779L9.385,200.779C-3.119,213.269 -3.13,233.53 9.36,246.034L169.385,406.059C181.899,418.538 202.16,418.51 214.64,405.996C215.622,405.011 216.539,403.963 217.385,402.859C226.356,389.478 224.398,371.583 212.745,360.459L124.425,271.819C119.73,267.119 114.332,263.178 108.425,260.139L98.825,255.819L413.065,255.819C429.412,256.426 443.754,245.007 446.825,228.939C449.654,211.494 437.806,195.059 420.361,192.229Z" style="fill-rule:nonzero;"/>
        </g>
        <path d="M361.348,389.918C361.348,389.918 361.06,276.151 360.888,208.243C360.855,195.161 355.596,182.634 346.282,173.449C336.967,164.263 324.368,159.18 311.287,159.33C311.287,159.33 311.287,159.33 311.287,159.33" style="fill:none;stroke:black;stroke-width:47px;"/>
    </g>
</svg>
